<?xml version="1.0" encoding="UTF-8" standalone="no"?>
<!-- Created with Inkscape (http://www.inkscape.org/) -->

<svg
   xmlns:dc="http://purl.org/dc/elements/1.1/"
   xmlns:cc="http://creativecommons.org/ns#"
   xmlns:rdf="http://www.w3.org/1999/02/22-rdf-syntax-ns#"
   xmlns:svg="http://www.w3.org/2000/svg"
   xmlns="http://www.w3.org/2000/svg"
   xmlns:sodipodi="http://sodipodi.sourceforge.net/DTD/sodipodi-0.dtd"
   xmlns:inkscape="http://www.inkscape.org/namespaces/inkscape"
   width="413"
   height="285"
   viewBox="0 0 412.99966 284.9998"
   id="svg2"
   version="1.1"
   inkscape:version="0.91 r13725"
   sodipodi:docname="HFTensorflowSadows.svg">
  <defs
     id="defs4">
    <filter
       style="color-interpolation-filters:sRGB"
       inkscape:label="Blur"
       id="filter4230">
      <feGaussianBlur
         stdDeviation="9.38 9.38406"
         result="blur"
         id="feGaussianBlur4232" />
    </filter>
    <filter
       inkscape:collect="always"
       style="color-interpolation-filters:sRGB"
       id="filter4711"
       x="-0.12804595"
       width="1.256092"
       y="-0.067967907"
       height="1.1359358">
      <feGaussianBlur
         inkscape:collect="always"
         stdDeviation="4.9227125"
         id="feGaussianBlur4713" />
    </filter>
    <filter
       inkscape:collect="always"
       style="color-interpolation-filters:sRGB"
       id="filter4771"
       x="-0.15010588"
       width="1.3002118"
       y="-0.06304948"
       height="1.126099">
      <feGaussianBlur
         inkscape:collect="always"
         stdDeviation="5.4280559"
         id="feGaussianBlur4773" />
    </filter>
  </defs>
  <sodipodi:namedview
     id="base"
     pagecolor="#ffffff"
     bordercolor="#666666"
     borderopacity="1.0"
     inkscape:pageopacity="0.0"
     inkscape:pageshadow="2"
     inkscape:zoom="1.28"
     inkscape:cx="318.27997"
     inkscape:cy="144.86059"
     inkscape:document-units="px"
     inkscape:current-layer="layer1"
     showgrid="false"
     inkscape:window-width="1366"
     inkscape:window-height="715"
     inkscape:window-x="-8"
     inkscape:window-y="-8"
     inkscape:window-maximized="1"
     units="px" />
  <metadata
     id="metadata7">
    <rdf:RDF>
      <cc:Work
         rdf:about="">
        <dc:format>image/svg+xml</dc:format>
        <dc:type
           rdf:resource="http://purl.org/dc/dcmitype/StillImage" />
        <dc:title></dc:title>
      </cc:Work>
    </rdf:RDF>
  </metadata>
  <g
     inkscape:label="Capa 1"
     inkscape:groupmode="layer"
     id="layer1"
     transform="translate(0,-767.36208)">
    <g
       id="g4775"
       transform="translate(-69.218714,0)">
      <path
         transform="matrix(0.9081325,0,0,0.9081325,35.528451,71.41838)"
         sodipodi:nodetypes="ccccccccccc"
         inkscape:connector-curvature="0"
         id="path4387"
         d="m 416.49291,951.86983 -25.34766,-15.78948 -3.77082,-158.03535 92.26774,39.47613 -1.88671,36.33124 -59.65646,-27.73714 -1.44598,33.5924 26.00336,14.03811 -0.82257,29.90311 -24.90388,-12.68197 z"
         style="fill:#565656;fill-opacity:1;filter:url(#filter4711)" />
      <g
         transform="translate(64.134902,452.54783)"
         id="g4160">
        <path
           inkscape:connector-curvature="0"
           id="path4153"
           d="m 160.69196,599.42333 -24.58035,-16.16827 -10.35683,-164.0625 29.75926,-13.81986 29.52165,13.66797 -0.5625,-26.63803 27.9375,-13.07368 89.75,38.5 -1.5765,35.18299 -26.61422,14.89936 -34.15569,-15.93266 -2.67074,97.51905 -23.42342,16.41361 -22.44919,-13.37045 -3.85103,2.09405 0.51717,27.68486 z"
           style="fill:#4094c7"
           sodipodi:nodetypes="ccccccccccccccccc" />
        <path
           inkscape:connector-curvature="0"
           id="path4151"
           d="m 161.20987,599.69765 -25.20541,-16.13552 -10.48924,-163.16163 29.3355,13.69736 29.90374,-14.85853 0,-26.76557 91.79811,39.51623 25.86883,-14.02419 -2.1774,35.45592 -25.80526,15.11945 -34.44005,-16.81164 -2.11266,98.36658 -24.32501,15.9195 -22.23619,-13.14651 -3.28912,1.72445 0.6039,28.22396 z m 53.02471,-94.0099 -27.57387,-15.65592 -28.9375,15.65118 28.625,16.04946 z m -27.51643,-15.93058 26.95708,-15.44922 -27.61508,-13.64664 z"
           style="fill:#275c7d"
           sodipodi:nodetypes="cccccccccccccccccccccccccc" />
        <path
           inkscape:connector-curvature="0"
           id="path4149"
           d="m 160.93047,599.62175 -25.12031,-15.53177 -10.28531,-164.19906 29.22961,14.18651 2.96015,71.36513 28.44623,16.18838 0.9375,33.0226 -27.95742,-15.72733 z m 29.86672,-46.54635 22.45804,-13.41409 0.31173,26.5625 z m -4.82754,-92.1697 -1.62934,-68.35319 91.61772,39.40725 -1.82235,36.25782 -59.84997,-27.64077 -0.51201,33.522 z"
           style="fill:#183849"
           sodipodi:nodetypes="cccccccccccccccccccc" />
      </g>
      <path
         transform="matrix(0.89370274,0,0,0.89370274,16.908366,82.802012)"
         sodipodi:nodetypes="ccccccccccccc"
         inkscape:connector-curvature="0"
         id="path4188"
         d="m 77.350245,986.29154 -5.77526,-164.17894 29.890715,-15.18294 1.46547,70.40902 26.97013,-15.56519 1.86498,-68.12097 26.59634,-13.98178 -3.74211,157.6443 -24.61032,15.8013 0.51374,-58.2084 -26.46245,16.13033 1.49176,59.08807 z"
         style="fill:#565656;fill-opacity:1;filter:url(#filter4771)" />
    </g>
  </g>
</svg>
